<mxfile host="app.diagrams.net" modified="2023-10-01T19:06:03.053Z" agent="Mozilla/5.0 (Windows NT 10.0; Win64; x64) AppleWebKit/537.36 (KHTML, like Gecko) Chrome/117.0.0.0 Safari/537.36" etag="ETYFHoCc6s5dCrjhqCVe" version="21.1.2" type="github">
  <diagram name="Страница 1" id="uUNT8eQwbnTHM8UVTARZ">
    <mxGraphModel dx="1195" dy="652" grid="1" gridSize="10" guides="1" tooltips="1" connect="1" arrows="1" fold="1" page="1" pageScale="1" pageWidth="827" pageHeight="1169" math="0" shadow="0">
      <root>
        <mxCell id="0" />
        <mxCell id="1" parent="0" />
        <mxCell id="Hg1vw5_EPYKEqecedWPb-15" value="" style="ellipse;whiteSpace=wrap;html=1;" vertex="1" parent="1">
          <mxGeometry x="280" y="525" width="60" height="60" as="geometry" />
        </mxCell>
        <mxCell id="Hg1vw5_EPYKEqecedWPb-1" value="" style="rounded=0;whiteSpace=wrap;html=1;" vertex="1" parent="1">
          <mxGeometry x="110" y="310" width="60" height="60" as="geometry" />
        </mxCell>
        <mxCell id="Hg1vw5_EPYKEqecedWPb-2" value="&lt;font style=&quot;font-size: 20px;&quot;&gt;1&lt;/font&gt;" style="text;html=1;align=center;verticalAlign=middle;resizable=0;points=[];autosize=1;strokeColor=none;fillColor=none;" vertex="1" parent="1">
          <mxGeometry x="125" y="320" width="30" height="40" as="geometry" />
        </mxCell>
        <mxCell id="Hg1vw5_EPYKEqecedWPb-7" value="&lt;font style=&quot;font-size: 20px;&quot;&gt;3&lt;/font&gt;" style="text;html=1;align=center;verticalAlign=middle;resizable=0;points=[];autosize=1;strokeColor=none;fillColor=none;" vertex="1" parent="1">
          <mxGeometry x="295" y="535" width="30" height="40" as="geometry" />
        </mxCell>
        <mxCell id="Hg1vw5_EPYKEqecedWPb-10" value="" style="endArrow=none;html=1;rounded=0;entryX=0;entryY=0.5;entryDx=0;entryDy=0;" edge="1" parent="1">
          <mxGeometry width="50" height="50" relative="1" as="geometry">
            <mxPoint x="140" y="310" as="sourcePoint" />
            <mxPoint x="280" y="110" as="targetPoint" />
          </mxGeometry>
        </mxCell>
        <mxCell id="Hg1vw5_EPYKEqecedWPb-11" value="Среднее&lt;br&gt;пр-тие&lt;br&gt;6 млн" style="text;html=1;align=center;verticalAlign=middle;resizable=0;points=[];autosize=1;strokeColor=none;fillColor=none;" vertex="1" parent="1">
          <mxGeometry x="140" y="160" width="70" height="60" as="geometry" />
        </mxCell>
        <mxCell id="Hg1vw5_EPYKEqecedWPb-12" value="" style="endArrow=none;html=1;rounded=0;entryX=0;entryY=0.5;entryDx=0;entryDy=0;exitX=0.5;exitY=1;exitDx=0;exitDy=0;" edge="1" parent="1" source="Hg1vw5_EPYKEqecedWPb-1">
          <mxGeometry width="50" height="50" relative="1" as="geometry">
            <mxPoint x="170" y="450" as="sourcePoint" />
            <mxPoint x="280" y="555" as="targetPoint" />
          </mxGeometry>
        </mxCell>
        <mxCell id="Hg1vw5_EPYKEqecedWPb-13" value="Малое&lt;br&gt;пр-тие&lt;br&gt;1 млн" style="text;html=1;align=center;verticalAlign=middle;resizable=0;points=[];autosize=1;strokeColor=none;fillColor=none;" vertex="1" parent="1">
          <mxGeometry x="155" y="460" width="60" height="60" as="geometry" />
        </mxCell>
        <mxCell id="Hg1vw5_EPYKEqecedWPb-14" value="" style="ellipse;whiteSpace=wrap;html=1;" vertex="1" parent="1">
          <mxGeometry x="280" y="80" width="60" height="60" as="geometry" />
        </mxCell>
        <mxCell id="Hg1vw5_EPYKEqecedWPb-5" value="&lt;font style=&quot;font-size: 20px;&quot;&gt;2&lt;br&gt;&lt;/font&gt;" style="text;html=1;align=center;verticalAlign=middle;resizable=0;points=[];autosize=1;strokeColor=none;fillColor=none;" vertex="1" parent="1">
          <mxGeometry x="295" y="90" width="30" height="40" as="geometry" />
        </mxCell>
        <mxCell id="Hg1vw5_EPYKEqecedWPb-18" value="" style="curved=1;endArrow=classic;html=1;rounded=0;" edge="1" parent="1">
          <mxGeometry width="50" height="50" relative="1" as="geometry">
            <mxPoint x="340" y="100" as="sourcePoint" />
            <mxPoint x="600" y="60" as="targetPoint" />
            <Array as="points">
              <mxPoint x="390" y="100" />
              <mxPoint x="340" y="50" />
            </Array>
          </mxGeometry>
        </mxCell>
        <mxCell id="Hg1vw5_EPYKEqecedWPb-19" value="1,2 млн" style="text;html=1;align=center;verticalAlign=middle;resizable=0;points=[];autosize=1;strokeColor=none;fillColor=none;" vertex="1" parent="1">
          <mxGeometry x="600" y="45" width="70" height="30" as="geometry" />
        </mxCell>
        <mxCell id="Hg1vw5_EPYKEqecedWPb-20" value="" style="endArrow=classic;html=1;rounded=0;exitX=1.028;exitY=0.661;exitDx=0;exitDy=0;exitPerimeter=0;" edge="1" parent="1" source="Hg1vw5_EPYKEqecedWPb-14">
          <mxGeometry width="50" height="50" relative="1" as="geometry">
            <mxPoint x="720" y="170" as="sourcePoint" />
            <mxPoint x="600" y="120" as="targetPoint" />
          </mxGeometry>
        </mxCell>
        <mxCell id="Hg1vw5_EPYKEqecedWPb-21" value="0,2 млн" style="text;html=1;align=center;verticalAlign=middle;resizable=0;points=[];autosize=1;strokeColor=none;fillColor=none;" vertex="1" parent="1">
          <mxGeometry x="600" y="100" width="70" height="30" as="geometry" />
        </mxCell>
        <mxCell id="Hg1vw5_EPYKEqecedWPb-22" value="P = 0.65" style="text;html=1;align=center;verticalAlign=middle;resizable=0;points=[];autosize=1;strokeColor=none;fillColor=none;" vertex="1" parent="1">
          <mxGeometry x="430" y="15" width="70" height="30" as="geometry" />
        </mxCell>
        <mxCell id="Hg1vw5_EPYKEqecedWPb-23" value="P = 0.35" style="text;html=1;align=center;verticalAlign=middle;resizable=0;points=[];autosize=1;strokeColor=none;fillColor=none;" vertex="1" parent="1">
          <mxGeometry x="430" y="90" width="70" height="30" as="geometry" />
        </mxCell>
      </root>
    </mxGraphModel>
  </diagram>
</mxfile>
